<?xml version="1.0" encoding="UTF-8"?>
<svg id="Layer_5" data-name="Layer 5" xmlns="http://www.w3.org/2000/svg" viewBox="0 0 102.03 133.73">
  <defs>
    <style>
      .cls-1 {
        fill: none;
      }

      .cls-1, .cls-2, .cls-3, .cls-4, .cls-5 {
        stroke-width: 0px;
      }

      .cls-2 {
        fill: #f9b21d;
      }

      .cls-3 {
        fill: #226db4;
      }

      .cls-4 {
        fill: #e52729;
      }

      .cls-5 {
        fill: #039a49;
      }
    </style>
  </defs>
  <path class="cls-4" d="m48.9,37.34l-15.55-15.63c-1.36-1.37-1.36-3.57,0-4.94L49.1,1.02c1.36-1.36,3.58-1.36,4.94,0l15.59,15.59c.66.66,1.02,1.54,1.02,2.47s-.37,1.82-1.02,2.47l-17.64,18.85c-.84-.84-2.45-2.4-3.1-3.06h.01Zm-8.13-18.09l10.62,10.67,10.85-10.85-10.65-10.65-10.82,10.82h0Z"/>
  <path class="cls-4" d="m51.38,133.73h0c-.93,0-1.82-.37-2.47-1.03l-16.1-16.04c-1.36-1.37-1.36-3.57,0-4.94l18.23-18.23,18.61,18.47c.66.66,1.02,1.54,1.02,2.47s-.37,1.82-1.02,2.47l-15.8,15.8c-.66.66-1.54,1.02-2.47,1.02h0Zm-10.61-19.12l10.62,10.67,10.85-10.85-10.65-10.65-10.82,10.82h0Z"/>
  <polygon class="cls-2" points="25 67.15 20.06 62.21 47.06 35.46 52.01 40.4 25 67.15"/>
  <polygon class="cls-4" points="62 51.39 52.01 40.39 56.78 35.27 66.93 46.44 62 51.39"/>
  <polygon class="cls-4" points="46.12 98.45 35.42 87.47 40.38 82.55 51.04 93.48 46.12 98.45"/>
  <polygon class="cls-2" points="55.98 98.42 51.04 93.49 80.34 64.09 85.28 69.03 55.98 98.42"/>
  <line class="cls-1" x1="55.76" y1="67.5" x2="50.83" y2="72.45"/>
  <path class="cls-5" d="m50.88,62.49l28.72-28.84c.66-.66,1.54-1.03,2.47-1.03h0c.93,0,1.82.37,2.47,1.02l15.59,15.59c1.36,1.36,1.36,3.58,0,4.94l-14.85,14.85-4.94-4.94,12.38-12.38-10.64-10.64-26.32,26.43"/>
  <line class="cls-1" x1="45.94" y1="67.45" x2="50.88" y2="62.49"/>
  <path class="cls-5" d="m50.83,72.45l-12.41,12.46-16.9,16.9c-.66.66-1.54,1.02-2.47,1.02h0c-.93,0-1.82-.37-2.47-1.03l-15.55-15.63c-1.36-1.37-1.36-3.57,0-4.94l14.13-14.13,4.95,4.93-11.68,11.68,10.62,10.67,14.42-14.42,12.47-12.53"/>
  <path class="cls-3" d="m3.65,55.66l-2.63-2.63C.34,52.35-.03,51.43,0,50.47c.02-.96.44-1.86,1.15-2.5l16.41-14.89c1.4-1.27,3.55-1.2,4.86.16l13.13,13.5-5,4.96-10.79-11.17-11.19,10.15.04.04-4.94,4.94h-.02Z"/>
  <path class="cls-3" d="m98.58,76.48l2.36,2.25c1.4,1.33,1.45,3.54.12,4.94l-3.15,3.32-4.98-4.85.66-.75"/>
  <polyline class="cls-5" points="93.63 81.39 67.11 56.09 72.02 51.15 98.62 76.49"/>
  <path class="cls-3" d="m81.51,102.41c-.94,0-1.85-.38-2.5-1.06l-12.89-13.11,4.98-4.99,10.41,10.65,11.42-11.76,5.01,4.87-13.93,14.34c-.66.68-1.56,1.06-2.5,1.06h0Z"/>
  <polyline class="cls-2" points="50.91 62.52 71.1 83.26 66.06 88.06 30.54 51.69 35.55 46.81 50.91 62.52"/>
  <rect class="cls-5" x="18.67" y="46.53" width="6.99" height="45.27" transform="translate(-42.49 36.07) rotate(-45.13)"/>
</svg>